# xmcd
#
# Track frame offsets:
#	225
#	12055
#	26702
#	41974
#	55153
#	69723
#	82059
#	96002
#	109020
#	123409
#	135455
#	150874
#	163423
#	178483
#	192751
#	207523
#	222250
#	235940
#	249724
#	264399
#	278905
#	292214
#	305893
#	319907
#
# Disc length: 4458 seconds
#
# Revision: 1
# Processed by: cddbd v1.5.2PL0 Copyright (c) Steve Scherf et al.
# Submitted via: audiograbber 1.83.01
#
DISCID=74116718
DTITLE=Les Brown - A Sentimental Journey
DYEAR=2006
DGENRE=
TTITLE0=Leap frog
TTITLE1=Out of nowhere
TTITLE2=Daybreak serenade
TTITLE3=I´ve got my love to keep me warm
TTITLE4=I´m a-telling you, Sam
TTITLE5=High on a windy trumpet
TTITLE6=Lover´s leap
TTITLE7=Doctor, lawyer, Indian chief
TTITLE8=Day by Day
TTITLE9=Jumpy Stumpy
TTITLE10=Sentimental Rhapsody
TTITLE11=Triskaidekaphobia
TTITLE12=Dardanella
TTITLE13=There´s good blues tonight
TTITLE14=A foggy day (in London town)
TTITLE15=Drifting and dreaming
TTITLE16=Beware my heart
TTITLE17=Floatin´
TTITLE18=I bring you Spring
TTITLE19=Taking a chance of love
TTITLE20=Green eyes
TTITLE21=Blue moon
TTITLE22=Deep purple
TTITLE23=Sentimentel journey
EXTD=
EXTT0=
EXTT1=
EXTT2=
EXTT3=
EXTT4=
EXTT5=
EXTT6=
EXTT7=
EXTT8=
EXTT9=
EXTT10=
EXTT11=
EXTT12=
EXTT13=
EXTT14=
EXTT15=
EXTT16=
EXTT17=
EXTT18=
EXTT19=
EXTT20=
EXTT21=
EXTT22=
EXTT23=
PLAYORDER=
